<?xml version="1.0" encoding="UTF-8" standalone="no"?>
<!DOCTYPE svg PUBLIC "-//W3C//DTD SVG 1.1//EN"
 "http://www.w3.org/Graphics/SVG/1.1/DTD/svg11.dtd">
<!-- Generated by graphviz version 2.43.0 (0)
 -->
<!-- Title: G Pages: 1 -->
<svg width="418pt" height="221pt"
 viewBox="0.00 0.00 418.00 221.00" xmlns="http://www.w3.org/2000/svg" xmlns:xlink="http://www.w3.org/1999/xlink">
<g id="graph0" class="graph" transform="scale(1 1) rotate(0) translate(4 217)">
<title>G</title>
<polygon fill="white" stroke="transparent" points="-4,4 -4,-217 414,-217 414,4 -4,4"/>
<!-- 140713499573272 -->
<g id="node1" class="node">
<title>140713499573272</title>
<polygon fill="none" stroke="black" points="0,-166.5 0,-212.5 410,-212.5 410,-166.5 0,-166.5"/>
<text text-anchor="middle" x="121.5" y="-185.8" font-family="Times,serif" font-size="14.00">simple_rnn_1_input: InputLayer</text>
<polyline fill="none" stroke="black" points="243,-166.5 243,-212.5 "/>
<text text-anchor="middle" x="277" y="-197.3" font-family="Times,serif" font-size="14.00">input:</text>
<polyline fill="none" stroke="black" points="243,-189.5 311,-189.5 "/>
<text text-anchor="middle" x="277" y="-174.3" font-family="Times,serif" font-size="14.00">output:</text>
<polyline fill="none" stroke="black" points="311,-166.5 311,-212.5 "/>
<text text-anchor="middle" x="360.5" y="-197.3" font-family="Times,serif" font-size="14.00">(50, 28, 28)</text>
<polyline fill="none" stroke="black" points="311,-189.5 410,-189.5 "/>
<text text-anchor="middle" x="360.5" y="-174.3" font-family="Times,serif" font-size="14.00">(50, 28, 28)</text>
</g>
<!-- 140713499573608 -->
<g id="node2" class="node">
<title>140713499573608</title>
<polygon fill="none" stroke="black" points="19.5,-83.5 19.5,-129.5 390.5,-129.5 390.5,-83.5 19.5,-83.5"/>
<text text-anchor="middle" x="121.5" y="-102.8" font-family="Times,serif" font-size="14.00">simple_rnn_1: SimpleRNN</text>
<polyline fill="none" stroke="black" points="223.5,-83.5 223.5,-129.5 "/>
<text text-anchor="middle" x="257.5" y="-114.3" font-family="Times,serif" font-size="14.00">input:</text>
<polyline fill="none" stroke="black" points="223.5,-106.5 291.5,-106.5 "/>
<text text-anchor="middle" x="257.5" y="-91.3" font-family="Times,serif" font-size="14.00">output:</text>
<polyline fill="none" stroke="black" points="291.5,-83.5 291.5,-129.5 "/>
<text text-anchor="middle" x="341" y="-114.3" font-family="Times,serif" font-size="14.00">(50, 28, 28)</text>
<polyline fill="none" stroke="black" points="291.5,-106.5 390.5,-106.5 "/>
<text text-anchor="middle" x="341" y="-91.3" font-family="Times,serif" font-size="14.00">(50, 75)</text>
</g>
<!-- 140713499573272&#45;&gt;140713499573608 -->
<g id="edge1" class="edge">
<title>140713499573272&#45;&gt;140713499573608</title>
<path fill="none" stroke="black" d="M205,-166.37C205,-158.15 205,-148.66 205,-139.73"/>
<polygon fill="black" stroke="black" points="208.5,-139.61 205,-129.61 201.5,-139.61 208.5,-139.61"/>
</g>
<!-- 140713499713608 -->
<g id="node3" class="node">
<title>140713499713608</title>
<polygon fill="none" stroke="black" points="71,-0.5 71,-46.5 339,-46.5 339,-0.5 71,-0.5"/>
<text text-anchor="middle" x="135" y="-19.8" font-family="Times,serif" font-size="14.00">dense_1: Dense</text>
<polyline fill="none" stroke="black" points="199,-0.5 199,-46.5 "/>
<text text-anchor="middle" x="233" y="-31.3" font-family="Times,serif" font-size="14.00">input:</text>
<polyline fill="none" stroke="black" points="199,-23.5 267,-23.5 "/>
<text text-anchor="middle" x="233" y="-8.3" font-family="Times,serif" font-size="14.00">output:</text>
<polyline fill="none" stroke="black" points="267,-0.5 267,-46.5 "/>
<text text-anchor="middle" x="303" y="-31.3" font-family="Times,serif" font-size="14.00">(50, 75)</text>
<polyline fill="none" stroke="black" points="267,-23.5 339,-23.5 "/>
<text text-anchor="middle" x="303" y="-8.3" font-family="Times,serif" font-size="14.00">(50, 10)</text>
</g>
<!-- 140713499573608&#45;&gt;140713499713608 -->
<g id="edge2" class="edge">
<title>140713499573608&#45;&gt;140713499713608</title>
<path fill="none" stroke="black" d="M205,-83.37C205,-75.15 205,-65.66 205,-56.73"/>
<polygon fill="black" stroke="black" points="208.5,-56.61 205,-46.61 201.5,-56.61 208.5,-56.61"/>
</g>
</g>
</svg>
