<?xml version="1.0" encoding="UTF-8" standalone="no"?>
<!DOCTYPE svg PUBLIC "-//W3C//DTD SVG 1.1//EN"
 "http://www.w3.org/Graphics/SVG/1.1/DTD/svg11.dtd">
<!-- Generated by graphviz version 2.43.0 (0)
 -->
<!-- Title: G Pages: 1 -->
<svg width="438pt" height="221pt"
 viewBox="0.00 0.00 438.00 221.00" xmlns="http://www.w3.org/2000/svg" xmlns:xlink="http://www.w3.org/1999/xlink">
<g id="graph0" class="graph" transform="scale(1 1) rotate(0) translate(4 217)">
<title>G</title>
<polygon fill="white" stroke="transparent" points="-4,4 -4,-217 434,-217 434,4 -4,4"/>
<!-- 139909472769808 -->
<g id="node1" class="node">
<title>139909472769808</title>
<polygon fill="none" stroke="black" points="0,-166.5 0,-212.5 430,-212.5 430,-166.5 0,-166.5"/>
<text text-anchor="middle" x="121.5" y="-185.8" font-family="Times,serif" font-size="14.00">simple_rnn_1_input: InputLayer</text>
<polyline fill="none" stroke="black" points="243,-166.5 243,-212.5 "/>
<text text-anchor="middle" x="277" y="-197.3" font-family="Times,serif" font-size="14.00">input:</text>
<polyline fill="none" stroke="black" points="243,-189.5 311,-189.5 "/>
<text text-anchor="middle" x="277" y="-174.3" font-family="Times,serif" font-size="14.00">output:</text>
<polyline fill="none" stroke="black" points="311,-166.5 311,-212.5 "/>
<text text-anchor="middle" x="370.5" y="-197.3" font-family="Times,serif" font-size="14.00">(None, 28, 28)</text>
<polyline fill="none" stroke="black" points="311,-189.5 430,-189.5 "/>
<text text-anchor="middle" x="370.5" y="-174.3" font-family="Times,serif" font-size="14.00">(None, 28, 28)</text>
</g>
<!-- 139909472769584 -->
<g id="node2" class="node">
<title>139909472769584</title>
<polygon fill="none" stroke="black" points="19.5,-83.5 19.5,-129.5 410.5,-129.5 410.5,-83.5 19.5,-83.5"/>
<text text-anchor="middle" x="121.5" y="-102.8" font-family="Times,serif" font-size="14.00">simple_rnn_1: SimpleRNN</text>
<polyline fill="none" stroke="black" points="223.5,-83.5 223.5,-129.5 "/>
<text text-anchor="middle" x="257.5" y="-114.3" font-family="Times,serif" font-size="14.00">input:</text>
<polyline fill="none" stroke="black" points="223.5,-106.5 291.5,-106.5 "/>
<text text-anchor="middle" x="257.5" y="-91.3" font-family="Times,serif" font-size="14.00">output:</text>
<polyline fill="none" stroke="black" points="291.5,-83.5 291.5,-129.5 "/>
<text text-anchor="middle" x="351" y="-114.3" font-family="Times,serif" font-size="14.00">(None, 28, 28)</text>
<polyline fill="none" stroke="black" points="291.5,-106.5 410.5,-106.5 "/>
<text text-anchor="middle" x="351" y="-91.3" font-family="Times,serif" font-size="14.00">(None, 50)</text>
</g>
<!-- 139909472769808&#45;&gt;139909472769584 -->
<g id="edge1" class="edge">
<title>139909472769808&#45;&gt;139909472769584</title>
<path fill="none" stroke="black" d="M215,-166.37C215,-158.15 215,-148.66 215,-139.73"/>
<polygon fill="black" stroke="black" points="218.5,-139.61 215,-129.61 211.5,-139.61 218.5,-139.61"/>
</g>
<!-- 139909472770816 -->
<g id="node3" class="node">
<title>139909472770816</title>
<polygon fill="none" stroke="black" points="71,-0.5 71,-46.5 359,-46.5 359,-0.5 71,-0.5"/>
<text text-anchor="middle" x="135" y="-19.8" font-family="Times,serif" font-size="14.00">dense_1: Dense</text>
<polyline fill="none" stroke="black" points="199,-0.5 199,-46.5 "/>
<text text-anchor="middle" x="233" y="-31.3" font-family="Times,serif" font-size="14.00">input:</text>
<polyline fill="none" stroke="black" points="199,-23.5 267,-23.5 "/>
<text text-anchor="middle" x="233" y="-8.3" font-family="Times,serif" font-size="14.00">output:</text>
<polyline fill="none" stroke="black" points="267,-0.5 267,-46.5 "/>
<text text-anchor="middle" x="313" y="-31.3" font-family="Times,serif" font-size="14.00">(None, 50)</text>
<polyline fill="none" stroke="black" points="267,-23.5 359,-23.5 "/>
<text text-anchor="middle" x="313" y="-8.3" font-family="Times,serif" font-size="14.00">(None, 10)</text>
</g>
<!-- 139909472769584&#45;&gt;139909472770816 -->
<g id="edge2" class="edge">
<title>139909472769584&#45;&gt;139909472770816</title>
<path fill="none" stroke="black" d="M215,-83.37C215,-75.15 215,-65.66 215,-56.73"/>
<polygon fill="black" stroke="black" points="218.5,-56.61 215,-46.61 211.5,-56.61 218.5,-56.61"/>
</g>
</g>
</svg>
